<?xml version="1.0" encoding="utf-8" ?>
<svg xmlns="http://www.w3.org/2000/svg" xmlns:xlink="http://www.w3.org/1999/xlink" width="1024" height="1024">
	<path fill="#D0D2E0" transform="scale(2 2)" d="M264.768 286.907C266.456 287.64 267.795 288.611 269.239 289.732C266.184 290.456 261.715 291.535 260.067 294.369L259.812 294.892L259.298 294.369C260.103 291.378 262.586 288.97 264.768 286.907Z"/>
	<path fill="#F7F7F8" transform="scale(2 2)" d="M290.235 261.674C290.519 262.023 290.216 266.983 290.235 267.777C285.98 267.906 281.742 268.457 277.505 268.843C275.983 268.278 285.064 263.346 290.235 261.674Z"/>
	<path fill="#A6B7F6" transform="scale(2 2)" d="M204.917 401.559C211.464 401.095 213.58 407.455 206.884 408.3C200.693 408.341 196.905 402.973 204.917 401.559Z"/>
	<path fill="#D0D2E0" transform="scale(2 2)" d="M260.067 294.369C264.285 304.46 283.615 290.305 283.432 297.516C273.95 296.969 266.358 308.342 259.298 296.422C259.098 295.707 259.223 295.097 259.298 294.369L259.812 294.892L260.067 294.369Z"/>
	<path fill="#99E375" transform="scale(2 2)" d="M417.615 224.439L418.461 224.558C419.622 226.274 403.464 253.454 400.78 257.563C399.968 258.807 399.166 259.955 398.02 260.923C396.895 252.139 411.786 231.955 416.768 224.439L417.615 224.439Z"/>
	<path fill="#F85256" transform="scale(2 2)" d="M317.642 151.336C326.376 145.218 336.094 146.274 344.279 152.725C340.472 154.478 329.827 152.967 326.508 157.518C323.849 156.937 319.168 153.622 317.642 151.336Z"/>
	<path fill="#36467C" transform="scale(2 2)" d="M308.645 249.499C310.794 249.135 312.934 248.848 315.1 248.614L315.1 252.209L315.1 272.439C312.914 271.451 311.045 270.702 308.645 270.434C308.331 268.13 308.606 265.565 308.621 263.225L308.645 249.499Z"/>
	<path fill="#A6B7F6" transform="scale(2 2)" d="M189.472 411.554C192.858 410.792 196.218 413.022 193.835 416.375C191.631 419.475 184.015 423.025 179.906 423.786C165.638 421.591 183.267 411.816 189.472 411.554Z"/>
	<path fill="#D0D2E0" transform="scale(2 2)" d="M304.711 295.292C309.91 292.784 315.179 289.654 320.634 287.799C322.064 289.741 322.632 292.042 323.046 294.369L322.639 294.195C320.326 298.226 324.042 306.207 310.116 309.586C305.175 307.876 300.66 305.106 295.738 303.304C295.944 306.065 296.472 309.565 295.738 312.244C295.291 308.807 295.713 304.822 295.738 301.328C301.016 302.462 305.873 304.999 311.24 306.084C313.491 304.784 315.608 302.951 317.642 301.328C313.443 299.07 309.091 297.169 304.711 295.292Z"/>
	<path fill="#F7F7F8" transform="scale(2 2)" d="M246.515 228.663C254.253 224.353 271.515 213.222 277.505 211.808C277.345 214.072 277.357 216.232 277.505 218.493C266.936 223.875 256.794 230.366 246.515 236.292C246.409 233.761 246.369 231.192 246.515 228.663Z"/>
	<path fill="#A6B7F6" transform="scale(2 2)" d="M244.667 394.196L245.008 394.001C246.563 396.319 247.751 398.871 249.51 401.062C259.503 413.51 283.988 415.078 298.429 412.268C298.448 413.485 298.563 414.779 298.429 415.986C293.147 416.713 290.544 417.814 284.79 417.854C268.99 417.964 247.667 412.297 244.667 394.196Z"/>
	<path fill="#F7F7F8" transform="scale(2 2)" d="M278.878 229.597C279.607 231.678 280.524 233.484 281.824 235.27C274.326 237.212 255.005 250.636 246.515 254.842C246.473 252.912 246.157 249.443 247.165 247.739C248.093 246.17 274.165 230.639 278.878 229.597Z"/>
	<path fill="#D0D2E0" transform="scale(2 2)" d="M290.235 277.294C297.683 276.682 304.448 278.414 311.24 281.261C305.859 283.406 300.465 285.813 295.369 288.569L292.385 289.732C286.271 287.744 280.079 284.225 274.361 281.261C279.721 278.952 284.417 277.702 290.235 277.294Z"/>
	<path fill="#F7F7F8" transform="scale(2 2)" d="M246.515 217.653C246.405 216.212 245.681 211.485 246.6 210.284C246.817 210.001 281.922 190.108 283.432 189.734C282.692 192.603 281.527 195.401 281.134 198.336C279.884 198.098 249.096 216.131 246.515 217.653Z"/>
	<path fill="#A6B7F6" transform="scale(2 2)" d="M245.981 376.586C246.201 377.151 244.962 386.249 244.667 388.509C239.564 390.58 227.147 399.22 222.795 399.085C220.481 399.012 216.617 397.97 217.428 394.912C218.169 392.116 241.756 379.247 245.981 376.586Z"/>
	<path fill="#F7F7F8" transform="scale(2 2)" d="M143.161 246.325L143.653 246.474C144.103 248.126 143.776 250.476 143.75 252.209C140.563 254.733 136.606 256.58 133.096 258.639L108.05 273.076C103.518 275.653 99.2323 277.854 95.2521 281.261C93.7286 281.023 94.2439 275.624 94.2612 274.411C96.367 272.763 98.9348 271.5 101.242 270.142L133.825 251.26C136.879 249.48 139.872 247.646 143.161 246.325Z"/>
	<path fill="#F7F7F8" transform="scale(2 2)" d="M143.161 336.668C144.144 336.725 143.753 341.182 143.75 342.061C140.444 345.015 134.506 347.486 130.539 349.766L108.098 362.452C103.527 365.021 99.0681 367.822 94.2612 369.933L94.1304 369.948C93.532 368.702 94.1778 365.1 94.2612 363.583C97.1356 361.692 100.264 360.072 103.256 358.364L119.779 349.004C126.29 345.353 136.277 338.548 143.161 336.668Z"/>
	<path fill="#F7F7F8" transform="scale(2 2)" d="M143.161 264.504C144.274 264.577 143.766 269.448 143.75 270.434C133.322 278.244 106.125 292.666 94.2612 298.696C93.6866 297.837 94.2154 293.308 94.2612 292.085C96.3916 290.541 98.8235 289.392 101.119 288.114L129.478 271.701C133.822 269.163 138.382 266.094 143.161 264.504Z"/>
	<path fill="#F7F7F8" transform="scale(2 2)" d="M142.46 282.227L143.443 282.253C144.414 283.438 143.856 286.306 143.75 287.799C140.934 290.32 137.192 292.144 133.931 294.047L116.663 303.993C109.684 308.002 102.666 312.837 95.2521 315.97L94.6248 316.181C93.7716 315.22 94.217 311.755 94.2612 310.393C98.8531 306.265 105.798 303.558 111.149 300.431L124.276 292.649C130.265 289.076 136.206 285.329 142.46 282.227Z"/>
	<path fill="#F7F7F8" transform="scale(2 2)" d="M143.75 299.497C144.239 300.665 143.766 304.591 143.75 306.084C135.79 312.127 121.013 319.306 111.763 324.526C105.96 327.8 100.375 331.904 94.2612 334.549C93.7396 333.507 94.2418 328.875 94.2612 327.415C98.3795 324.357 103.615 322.473 108.075 319.903L133.102 305.46C136.648 303.449 139.992 301.112 143.75 299.497Z"/>
	<path fill="#F7F7F8" transform="scale(2 2)" d="M143.161 317.775L143.619 317.948C143.98 319.923 143.758 322.196 143.75 324.209C139.884 327.005 135.232 329.049 131.11 331.488C121.204 337.349 104.476 348.037 94.2612 352.321C93.5907 351.385 94.1585 347.269 94.2612 345.941C101.262 340.725 110.281 336.459 117.875 332.102C126.206 327.322 134.463 321.847 143.161 317.775Z"/>
	<path fill="#F7F7F8" transform="scale(2 2)" d="M246.515 191.925C263.4 183.446 278.952 172.568 295.738 163.972C296.062 165.97 295.928 167.785 295.738 169.784C295.315 171.124 294.682 172.043 293.69 173.03C290.317 173.15 251.192 196.515 246.515 199.594L246.515 191.925Z"/>
	<path fill="#F7F7F8" transform="scale(2 2)" d="M290.235 241.698L292.385 243.889C293.523 244.667 294.703 245.411 295.738 246.325C290.655 249.498 285.373 252.141 280.164 255.068L259.557 266.919C255.222 269.381 250.632 271.6 246.515 274.411C246.631 271.898 246.594 269.421 246.515 266.91C254.503 261.244 267.08 254.564 275.757 249.883C279.254 247.998 287.653 244.128 290.235 241.698Z"/>
	<path fill="#A6B7F6" transform="scale(2 2)" d="M310.116 309.586C324.042 306.207 320.326 298.226 322.639 294.195L323.046 294.369C323.622 312.399 300.774 318.473 286.336 317.775C273.537 318.255 259.805 310.443 259.298 296.422C266.358 308.342 273.95 296.969 283.432 297.516L283.432 312.244C287.529 311.876 291.634 312.24 295.738 312.244C296.472 309.565 295.944 306.065 295.738 303.304C300.66 305.106 305.175 307.876 310.116 309.586Z"/>
	<path fill="#D0D2E0" transform="scale(2 2)" d="M283.432 312.244C287.529 311.876 291.634 312.24 295.738 312.244L295.738 315.97L287.944 315.97C286.738 315.525 284.759 315.572 283.432 315.389L283.432 312.244Z"/>
	<path fill="#F7F7F8" transform="scale(2 2)" d="M248.226 369.933L248.263 370.22C248.621 373.173 248.487 376.174 248.702 379.139C250.117 398.689 274.771 404.243 290.753 402.247C293.323 401.926 295.826 401.474 298.429 401.559C298.099 405.075 298.328 408.739 298.429 412.268C283.988 415.078 259.503 413.51 249.51 401.062C247.751 398.871 246.563 396.319 245.008 394.001L244.667 394.196C244.178 392.84 244.784 390.069 244.667 388.509C244.962 386.249 246.201 377.151 245.981 376.586C246.661 375.882 247.416 375.378 248.226 374.833C248.132 373.176 248.084 371.589 248.226 369.933Z"/>
	<path fill="#6C83F8" transform="scale(2 2)" d="M248.226 368.235C249.666 370.291 250.471 372.696 251.894 374.753C261.691 388.911 283.132 390.306 298.429 386.873C298.33 391.667 298.875 396.826 298.429 401.559C295.826 401.474 293.323 401.926 290.753 402.247C274.771 404.243 250.117 398.689 248.702 379.139C248.487 376.174 248.621 373.173 248.263 370.22L248.226 369.933L248.226 368.235Z"/>
	<path fill="#80CF43" transform="scale(2 2)" d="M391.008 195.286C392.362 196.999 394.594 197.675 396.603 198.336C394.148 202.64 376.853 243.656 376.764 246.099C377.577 246.699 378.217 246.099 379.104 246.065C380.489 246.011 383.192 247.858 384.368 248.614L385.703 247.16C377.061 244.148 403.317 234.378 406.239 235.27C411.402 234.726 411.412 223.212 416.768 224.439C411.786 231.955 396.895 252.139 398.02 260.923C396.504 261.62 373.341 246.227 370.456 243.889C371.404 241.037 372.693 238.229 373.842 235.446L381.618 217.027C383.998 211.332 387.682 200.168 391.008 195.286Z"/>
	<path fill="#F7F7F8" transform="scale(2 2)" d="M385.703 247.16C377.061 244.148 403.317 234.378 406.239 235.27C405.494 238.262 399.858 248.489 397.49 250.267C395.956 249.868 395.81 246.181 395.624 244.904C392.242 245.47 388.984 246.138 385.703 247.16Z"/>
	<path fill="#FDD37E" transform="scale(2 2)" d="M158.478 264.504C164.982 242.549 192.4 201.227 219.632 215.026C218.208 219.102 216.869 223.426 214.674 227.168C197.562 215.81 175.567 245.671 171.086 260.301C170.529 262.118 170.377 264.552 169.588 266.219C168.843 261.998 173.695 254.56 173.135 252.465C166.867 254.58 160.301 264.921 158.478 264.504Z"/>
	<path fill="#99E375" transform="scale(2 2)" d="M391.008 195.286C394.054 193.812 395.91 196.31 398.02 198.336C400.521 198.967 402.787 200.239 404.829 201.802C406.729 206.936 404.835 216.045 409.448 219.696C411.811 221.566 415.008 222.828 417.615 224.439L416.768 224.439C411.412 223.212 411.402 234.726 406.239 235.27C403.317 234.378 377.061 244.148 385.703 247.16L384.368 248.614C383.192 247.858 380.489 246.011 379.104 246.065C378.217 246.099 377.577 246.699 376.764 246.099C376.853 243.656 394.148 202.64 396.603 198.336C394.594 197.675 392.362 196.999 391.008 195.286Z"/>
	<defs>
		<linearGradient id="gradient_0" gradientUnits="userSpaceOnUse" x1="226.59998" y1="266.62042" x2="160.49866" y2="254.34831">
			<stop offset="0" stop-color="#FC7824"/>
			<stop offset="1" stop-color="#FDC973"/>
		</linearGradient>
	</defs>
	<path fill="url(#gradient_0)" transform="scale(2 2)" d="M219.632 215.026C250.028 234.165 217.46 299.235 183.609 306.714C157.16 312.558 153.748 284.542 158.478 264.504C160.301 264.921 166.867 254.58 173.135 252.465C173.695 254.56 168.843 261.998 169.588 266.219C168.14 274.571 167.405 286.584 175.275 292.168C198.519 308.661 240.707 244.652 214.674 227.168C216.869 223.426 218.208 219.102 219.632 215.026Z"/>
	<path fill="#36467C" transform="scale(2 2)" d="M196.598 264.504C202.309 265.606 197.097 273.176 193.883 274.411C187.852 273.152 193 265.998 196.598 264.504Z"/>
	<path fill="#36467C" transform="scale(2 2)" d="M196.598 235.27C200.434 235.445 200.552 238.077 200.193 241.287C199.392 248.44 199.493 257.231 193.883 261.674C188.602 253.667 186.283 240.294 196.598 235.27Z"/>
	<defs>
		<linearGradient id="gradient_1" gradientUnits="userSpaceOnUse" x1="243.44043" y1="315.3049" x2="315.26346" y2="351.43503">
			<stop offset="0" stop-color="#C3D5F8"/>
			<stop offset="1" stop-color="#EDF2F7"/>
		</linearGradient>
	</defs>
	<path fill="url(#gradient_1)" transform="scale(2 2)" d="M248.226 302.296C259.396 330.954 307.841 329.616 327.664 310.943C329.839 308.894 334.277 298.317 333.762 303.304C332.813 306.798 334.561 310.725 333.483 313.998C332.308 317.564 308.399 327.682 304.711 332.893C296.502 339.665 298.412 352.998 298.418 362.512L298.429 386.873C283.132 390.306 261.691 388.911 251.894 374.753C250.471 372.696 249.666 370.291 248.226 368.235C247.905 364.429 247.953 360.134 248.226 356.325C248.474 353.743 248.258 350.953 248.254 348.348L248.226 331.739C248.405 329.584 248.755 325.605 248.226 323.589C248.575 321.606 248.268 319.026 248.258 316.974L248.226 302.296Z"/>
	<path fill="#F7F7F8" transform="scale(2 2)" d="M75.2079 423.786C86.6641 427.05 83.958 425.816 94.8856 419.593L225.569 344.455C233.121 340.215 240.588 335.824 248.226 331.739L248.254 348.348C248.258 350.953 248.474 353.743 248.226 356.325C241.801 361.268 233.959 364.801 226.894 368.785L118.062 430.762C111.766 434.257 102.731 440.339 96.5959 443.068C85.6875 447.921 76.7072 441.827 66.9916 437.538C64.3878 436.389 49.9724 431.418 51.1892 429.176C52.4559 426.842 65.1446 420.743 68.1479 420.037L68.4831 419.662C71.0027 420.845 72.9075 422.32 75.2079 423.786Z"/>
	<path fill="#6C83F8" transform="scale(2 2)" d="M297.615 114.208C298.875 114.576 298.435 121.98 298.436 123.375L298.429 136.883C291.062 142.165 282.085 146.622 274.189 151.215L150.26 222.732C144.165 226.293 93.2908 256.7 88.6349 256.867C86.3781 254.248 87.2376 238.677 88.3106 235.39C89.4858 231.79 112.704 220.056 117.067 217.612L256.761 137.716C270.133 129.926 283.948 121.325 297.615 114.208ZM277.505 133.483C274.058 135.195 268.049 145.769 275.204 145.194C278.642 143.455 280.171 140.436 281.134 136.883C280.354 134.798 279.831 133.61 277.505 133.483Z"/>
	<path fill="#F7F7F8" transform="scale(2 2)" d="M290.875 125.227C297.696 125.131 291.698 136.21 287.944 137.593C280.649 137.058 287.325 127.358 290.875 125.227Z"/>
	<path fill="#F7F7F8" transform="scale(2 2)" d="M106.253 227.168L106.603 226.407C114.888 223.501 112.697 243.904 102.79 246.184C94.1641 248.169 94.4871 233.627 101.448 229.597C103.147 229.105 104.847 228.234 106.253 227.168Z"/>
	<path fill="#FE0200" transform="scale(2 2)" d="M106.253 227.168C106.407 231.324 106.311 235.528 106.253 239.688C104.842 240.892 103.146 241.836 101.448 242.572L101.448 229.597C103.147 229.105 104.847 228.234 106.253 227.168Z"/>
	<path fill="#F3526A" transform="scale(2 2)" d="M314.504 152.725L317.642 151.336C319.168 153.622 323.849 156.937 326.508 157.518C329.827 152.967 340.472 154.478 344.279 152.725C345.325 153.06 346.286 153.493 347.279 153.954C365.788 159.746 364.167 183.808 359.328 198.743C353.293 217.367 339.758 236.118 322.083 245.114L315.1 248.614L315.1 252.209L315.1 248.614C312.934 248.848 310.794 249.135 308.645 249.499C303.467 249.405 300.271 248.926 295.738 246.325C294.703 245.411 293.523 244.667 292.385 243.889L290.235 241.698C287.359 239.627 284.562 237.52 281.824 235.27C280.524 233.484 279.607 231.678 278.878 229.597C278.47 227.604 278.023 225.634 277.505 223.666C277.288 222.027 277.482 220.157 277.505 218.493C277.357 216.232 277.345 214.072 277.505 211.808C278.227 207.123 279.348 202.725 281.134 198.336C281.527 195.401 282.692 192.603 283.432 189.734C286.306 186.016 288.097 181.593 290.875 177.783C291.377 176.113 292.718 174.453 293.69 173.03C294.682 172.043 295.315 171.124 295.738 169.784C299.607 165.161 303.958 160.411 308.645 156.603C310.68 155.458 312.605 154.08 314.504 152.725Z"/>
	<path fill="#BC2E46" transform="scale(2 2)" d="M277.505 223.666C277.574 223.17 277.623 222.7 277.566 222.197L278.02 222.118L277.886 222.109C279.022 226.483 278.865 230.549 281.824 234.426C289.482 229.706 286.092 236.579 286.109 224.774L286.277 225.336L286.111 224.775C286.061 231.862 290.277 237.503 292.385 243.889L290.235 241.698C287.359 239.627 284.562 237.52 281.824 235.27C280.524 233.484 279.607 231.678 278.878 229.597C278.47 227.604 278.023 225.634 277.505 223.666Z"/>
	<path fill="#FDA3AE" transform="scale(2 2)" d="M314.504 152.725L317.642 151.336C319.168 153.622 323.849 156.937 326.508 157.518L326.508 157.518C315.123 164.341 306.002 171.661 299.118 183.476C296.581 181.262 293.624 179.7 290.875 177.783C291.377 176.113 292.718 174.453 293.69 173.03C294.682 172.043 295.315 171.124 295.738 169.784C299.607 165.161 303.958 160.411 308.645 156.603C310.68 155.458 312.605 154.08 314.504 152.725Z"/>
	<path fill="#F7F7F8" transform="scale(2 2)" d="M339.131 158.605C347.987 158.036 353.981 163.296 356.618 171.67C363.817 194.527 343.945 227.193 324.468 238.821C319.921 241.535 315.146 243.336 310.116 244.904C270.985 248.299 294.875 161.783 339.131 158.605Z"/>
	<path fill="#334DC9" transform="scale(2 2)" d="M348.893 168.65C351.461 169.298 347.109 173.05 346.375 173.843C344.129 172.467 347.848 169.645 348.893 168.65Z"/>
	<path fill="#334DC9" transform="scale(2 2)" d="M346.375 203.208C347.514 203.031 348.883 202.73 349.954 203.285L350.065 203.734C349.715 204.311 349.399 204.627 348.893 205.055C347.25 205.187 343.65 205.331 346.375 203.208Z"/>
	<path fill="#334DC9" transform="scale(2 2)" d="M337.964 161.872C339.102 162.509 336.669 167.669 336.179 168.65C333.298 167.112 336.587 163.316 337.964 161.872Z"/>
	<path fill="#334DC9" transform="scale(2 2)" d="M336.179 218.493C338.184 219.506 339.032 221.746 337.964 223.666C335.029 223.522 335.04 220.359 336.179 218.493Z"/>
	<path fill="#334DC9" transform="scale(2 2)" d="M308.645 179.325C311.135 180.34 311.455 182.363 310.116 184.444C307.979 183.057 307.218 181.497 308.645 179.325Z"/>
	<path fill="#334DC9" transform="scale(2 2)" d="M297.615 194.759C299.415 194.513 303.221 193.617 301.44 196.625C299.527 196.777 296.173 197.674 297.615 194.759Z"/>
	<path fill="#334DC9" transform="scale(2 2)" d="M300.522 227.168C303.252 227.401 298.232 231.812 297.615 232.49C293.638 233.315 299.305 228.059 300.522 227.168Z"/>
	<path fill="#6E7CAB" transform="scale(2 2)" d="M321.956 229.597C324.037 230.227 323.553 235.046 321.956 236.292C320.411 235.149 320.719 230.889 321.956 229.597Z"/>
	<path fill="#334DC9" transform="scale(2 2)" d="M300.522 210.791C301.968 212.807 296.487 214.592 295.369 215.026C294.011 212.379 298.846 211.351 300.522 210.791Z"/>
	<path fill="#334DC9" transform="scale(2 2)" d="M353.292 183.476C353.6 183.526 353.391 183.477 353.885 183.73L353.813 184.171C352.233 185.95 350.118 186.999 348.046 188.093C345.13 186.488 352.368 183.842 353.292 183.476Z"/>
	<path fill="#334DC9" transform="scale(2 2)" d="M311.24 232.49C312.712 233.227 309.204 238.527 308.645 239.688C305.373 237.997 309.579 233.868 311.24 232.49Z"/>
	<path fill="#334DC9" transform="scale(2 2)" d="M323.046 169.784L323.622 169.811C324.501 171.376 324.014 191.875 324.009 195.286C326.185 194.203 337.981 186.353 337.793 190.607C337.618 194.533 327.366 196.497 324.859 199.594C321.878 205.191 322.216 201.707 318.856 202.932C316.246 203.884 313.801 205.691 311.24 206.852C311.196 205.639 311.228 204.422 311.24 203.208C313.953 201.131 317.355 199.266 320.634 198.336C320.618 189.147 320.533 179.95 320.634 170.762L323.046 169.784Z"/>
	<path fill="#36467C" transform="scale(2 2)" d="M308.645 79.6055C317.855 84.4966 314.499 101.828 314.499 111.105L314.504 152.725C312.605 154.08 310.68 155.458 308.645 156.603L308.653 124.105C308.653 114.114 312.108 96.385 295.824 105.341C286.73 110.344 277.877 115.725 268.921 120.962L128.254 202.552C116.756 209.264 105.056 215.616 93.6001 222.413C81.7263 229.457 80.7948 227.856 80.889 242.523L80.9077 397.549C80.9071 402.998 79.1751 414.378 84.9099 416.836C89.6569 414.985 94.2049 411.928 98.6198 409.377L225.772 336.023C233.08 331.806 240.569 327.093 248.226 323.589C248.755 325.605 248.405 329.584 248.226 331.739C240.588 335.824 233.121 340.215 225.569 344.455L94.8856 419.593C83.958 425.816 86.6641 427.05 75.2079 423.786C73.4493 415.822 73.1963 413.288 73.1903 404.702L73.1823 235.083C73.17 223.41 71.9201 212.944 83.2785 205.528C92.3379 199.613 102.274 194.775 111.676 189.406L280.034 93.2955C286.688 89.545 298.648 81.1281 306.097 79.9944L308.645 79.6055Z"/>
	<path fill="#F85256" transform="scale(2 2)" d="M96.5443 205.055C105.164 202.675 101.593 216.695 94.2612 218.493C85.4237 218.908 90.404 206.732 96.5443 205.055Z"/>
	<path fill="#F5F341" transform="scale(2 2)" d="M112.3 194.759C121.715 194.18 116.844 205.843 110.088 209.185C100.865 210.189 105.975 197.512 112.3 194.759Z"/>
	<path fill="#18D8ED" transform="scale(2 2)" d="M128.843 186.24C138.137 186.544 131.236 199.557 125.472 201.802C116.296 200.395 122.502 188.913 128.843 186.24Z"/>
	<path fill="#6E7CAB" transform="scale(2 2)" d="M286.336 67.6166L287.385 67.9537C293.471 69.8988 302.309 76.4488 308.645 79.6055L306.097 79.9944C298.648 81.1281 286.688 89.545 280.034 93.2955L111.676 189.406C102.274 194.775 92.3379 199.613 83.2785 205.528C71.9201 212.944 73.17 223.41 73.1823 235.083L73.1903 404.702C73.1963 413.288 73.4493 415.822 75.2079 423.786C72.9075 422.32 71.0027 420.845 68.4831 419.662C64.9271 417.671 55.9669 414.088 54.4755 410.526C51.7562 404.033 53.2499 378.58 53.2536 370.457L53.2506 243.857C53.2469 233.474 52.8306 222.893 53.3192 212.529C53.913 199.933 64.1123 195.093 73.4651 189.581C82.8047 184.078 92.256 178.774 101.668 173.396L173.779 131.841C201.167 115.961 228.435 99.8354 256.064 84.3784C265.59 79.0491 276.472 71.6372 286.336 67.6166Z"/>
	<path fill="#D0D2E0" transform="scale(2 2)" d="M333.762 314.531C336.817 312.943 339.737 311.138 342.729 309.438L432.033 257.555C437.822 254.198 443.762 250.117 450.351 248.614C463.277 253.311 460.056 262.058 460.045 273.962L460.035 325.762C460.123 360.071 453.21 359.864 426.75 374.986L333.66 428.04C327.232 431.752 312.109 443.277 305.394 439.688C294.784 432.491 298.422 429.229 298.429 415.986C298.563 414.779 298.448 413.485 298.429 412.268C298.328 408.739 298.099 405.075 298.429 401.559C298.875 396.826 298.33 391.667 298.429 386.873L298.418 362.512C298.412 352.998 296.502 339.665 304.711 332.893C308.399 327.682 332.308 317.564 333.483 313.998C334.561 310.725 332.813 306.798 333.762 303.304C333.769 307.039 333.871 310.8 333.762 314.531Z"/>
	<path fill="#6E7CAB" transform="scale(2 2)" d="M447.058 266.219C451.059 266.334 447.965 271.301 446.021 272.439C441.877 272.017 445.311 267.571 447.058 266.219Z"/>
	<path fill="#6E7CAB" transform="scale(2 2)" d="M439.85 270.434C444.251 270.497 440.12 276.041 438.529 277.294C434.123 277.763 438.001 271.621 439.85 270.434Z"/>
	<path fill="#6E7CAB" transform="scale(2 2)" d="M329.885 332.893C333.953 332.591 330.979 337.666 328.106 339.216C323.609 339.393 327.923 333.884 329.885 332.893Z"/>
	<path fill="#6E7CAB" transform="scale(2 2)" d="M321.956 338.206C324.907 338.278 320.34 344.363 317.642 345.298C314.519 343.223 318.597 338.909 321.956 338.206Z"/>
	<path fill="#6E7CAB" transform="scale(2 2)" d="M396.603 293.011C403.249 295.741 389.093 302.481 387.382 303.491C382.154 306.575 376.912 310.026 371.453 312.663C363.632 308.544 393.843 293.984 396.603 293.011Z"/>
	<path fill="#6E7CAB" transform="scale(2 2)" d="M304.711 332.893C306.355 334.425 308.199 335.517 310.116 336.668C305.298 344.236 305.389 347.09 305.403 355.87L305.399 432.08C305.401 434.584 305.579 437.198 305.394 439.688C294.784 432.491 298.422 429.229 298.429 415.986C298.563 414.779 298.448 413.485 298.429 412.268C298.328 408.739 298.099 405.075 298.429 401.559C298.875 396.826 298.33 391.667 298.429 386.873L298.418 362.512C298.412 352.998 296.502 339.665 304.711 332.893Z"/>
	<path fill="#F7F7F8" transform="scale(2 2)" d="M456.736 259.423C456.951 263.497 456.704 267.659 456.712 271.744L456.743 327.26C456.764 347.002 456.805 353.718 439.164 363.526L318.396 432.19C316.082 433.52 311.461 437.611 308.645 436.574C306.81 433.463 307.678 419.76 307.682 415.896L307.673 373.09C307.665 356.761 308.255 359.81 322.051 351.569L436.963 283.615C442.104 280.55 451.739 275.847 456.056 272.054C456.759 271.436 456.597 261.302 456.736 259.423Z"/>
	<path fill="#D0D2E0" transform="scale(2 2)" d="M426.518 324.209L426.457 324.3C426.277 322.914 425.721 319.739 426.518 318.574C426.611 319.903 426.207 321.464 426.518 322.72C426.259 326.541 423.49 331.963 419.268 332.582C414.702 333.25 414.911 327.309 417.982 328.421C417.205 329.056 416.379 329.747 415.85 330.612C419.092 334.155 419.645 329.271 421.799 327.21C423.183 325.886 424.836 325.084 426.518 324.209Z"/>
	<path fill="#D0D2E0" transform="scale(2 2)" d="M388.27 361.599C389.84 361.611 390.578 362.46 390.108 364.08C389.196 367.223 379.611 371.831 376.507 373.282C375.085 373.345 374.358 372.198 374.761 370.798C375.623 367.809 385.323 363.322 388.27 361.599Z"/>
	<path fill="#D0D2E0" transform="scale(2 2)" d="M388.27 350.22C391.398 350.268 389.691 353.985 388.166 355.239C384.79 358.014 375.71 362.655 371.453 364.871L370.774 364.965C363.749 362.412 386.314 351.332 388.27 350.22Z"/>
	<path fill="#D0D2E0" transform="scale(2 2)" d="M389.2 338.206C397.685 340.19 372.631 352.786 367.107 356.325C365.727 356.015 365.88 353.793 366.161 352.737C366.894 349.98 385.449 340.283 389.2 338.206Z"/>
	<path fill="#D0D2E0" transform="scale(2 2)" d="M388.27 327.415C388.887 327.267 389.387 327.324 389.963 327.578C392.342 331.885 370.438 342.629 367.107 344.476C364.928 344.964 365.171 342.008 365.871 340.697C367.249 338.116 384.967 328.389 388.27 327.415Z"/>
	<path fill="#6C83F8" transform="scale(2 2)" d="M423.559 307.414C427.447 305.118 441.254 294.307 444.011 300.249C444.909 302.184 444.641 329.997 444.408 333.972C443.956 341.703 437.805 343.08 431.899 346.528L415.622 356.111C411.812 358.318 400.088 368.247 398.462 361.542C397.814 358.869 397.65 330.242 398.094 326.968C399.067 319.795 408.899 315.304 414.739 312.663L414.739 330.712C411.255 332.464 407.95 334.308 404.829 336.668C408.682 340.558 417.261 344.919 422.203 348.325C426.063 337.914 431.447 328.103 435.454 317.775C432.553 319.553 429.675 321.423 426.518 322.72C426.207 321.464 426.611 319.903 426.518 318.574C426.571 313.898 426.948 311.131 423.559 307.414Z"/>
	<path fill="#29A353" transform="scale(2 2)" d="M348.893 345.298C353.303 344.939 354.014 348.214 355.956 351.583C359.255 357.306 363.094 362.892 366.834 368.328C372.036 375.889 378.291 382.746 368.818 391.341C364.684 395.092 339.502 409.145 333.762 411.554C331.547 413.342 319.552 422.452 317.574 417.204C315.477 411.639 320.173 403.527 322.283 398.584L330.164 380.095C333.615 371.92 340.239 348.259 348.893 345.298Z"/>
	<path fill="#99E375" transform="scale(2 2)" d="M344.279 352.321C347.968 346.787 349.923 345.188 353.292 352.321C355.112 353.833 370.28 376.99 371.453 379.943C371.69 389.544 364.604 391.794 357.446 395.907L338.056 407.002C333.845 409.419 324.81 415.375 320.822 416.744L320.964 416.463L320.396 416.809C318.098 415.291 318.464 413.184 319.266 410.905C324.946 394.756 333.267 378.974 339.131 362.421C339.827 359.067 341.556 354.474 344.279 352.321Z"/>
	<path fill="#F7F7F8" transform="scale(2 2)" d="M345.461 352.321C347.956 350.404 351.075 349.486 353.292 352.321C353.166 361.631 354.415 380.141 352.584 388.537C348.845 405.681 335.598 398.199 341.711 392.688C342.505 392.274 343.444 392.543 344.279 392.688C339.078 391.219 339.944 381.556 339.948 377.629L339.981 363.583L339.864 362.663L339.131 362.421C339.827 359.067 341.556 354.474 344.279 352.321L345.461 352.321Z"/>
	<path fill="#29A353" transform="scale(2 2)" d="M347.279 361.599C347.963 362.035 350.299 378.356 346.375 380.917C343.795 380.027 344.999 363.649 347.279 361.599Z"/>
	<path fill="#29A353" transform="scale(2 2)" d="M345.461 352.321C347.956 350.404 351.075 349.486 353.292 352.321C353.166 361.631 354.415 380.141 352.584 388.537C348.845 405.681 335.598 398.199 341.711 392.688C344.053 402.271 350.293 393.665 351.098 388.332C351.612 384.929 351.974 358.163 351.203 355.296C349.151 347.673 342.763 359.169 341.711 361.599C341.524 365.399 340.84 385.782 342.942 387.704C345.033 389.616 346.596 383.702 348.477 383.38C352.016 385.937 346.702 391.271 344.279 392.688C339.078 391.219 339.944 381.556 339.948 377.629L339.981 363.583L339.864 362.663L339.131 362.421C339.827 359.067 341.556 354.474 344.279 352.321L345.461 352.321Z"/>
	<path fill="#80CF43" transform="scale(2 2)" d="M344.279 352.321L345.461 352.321C343.36 354.908 342.245 357.845 341.072 360.931C340.669 361.806 340.301 362.674 339.981 363.583L339.864 362.663L339.131 362.421C339.827 359.067 341.556 354.474 344.279 352.321Z"/>
</svg>
